<?xml version="1.0" standalone="no"?>
<!DOCTYPE svg PUBLIC "-//W3C//DTD SVG 20010904//EN"
 "http://www.w3.org/TR/2001/REC-SVG-20010904/DTD/svg10.dtd">
<svg version="1.0" xmlns="http://www.w3.org/2000/svg"
 width="946.000000pt" height="946.000000pt" viewBox="0 0 946.000000 946.000000"
 preserveAspectRatio="xMidYMid meet">
<metadata>
Created by potrace 1.11, written by Peter Selinger 2001-2013
</metadata>
<g transform="translate(0.000000,946.000000) scale(0.100000,-0.100000)"
fill="#000000" stroke="none">
<path d="M0 4730 l0 -4730 4730 0 4730 0 0 4730 0 4730 -4730 0 -4730 0 0
-4730z m5400 3500 l0 -360 -120 0 -120 0 0 -1070 0 -1070 480 0 480 0 0 475 0
475 715 0 715 0 0 -2860 0 -2860 -715 0 -715 0 0 715 0 715 -1435 0 -1435 0 0
-715 0 -715 -720 0 -720 0 0 2860 0 2860 720 0 720 0 0 -475 0 -475 475 0 475
0 0 1070 0 1070 -120 0 -120 0 0 360 0 360 720 0 720 0 0 -360z"/>
</g>
</svg>
